<svg xmlns="http://www.w3.org/2000/svg" xmlns:xlink="http://www.w3.org/1999/xlink" viewBox="0 0 290 411.22"><defs><linearGradient id="a" x1="11.11" y1="162.99" x2="129.03" y2="119.73" gradientUnits="userSpaceOnUse"><stop offset="0" stop-color="#00517b"/><stop offset="1" stop-color="#f4f4f5"/></linearGradient><linearGradient id="b" x1="-130.43" y1="161.37" x2="110.16" y2="128.78" xlink:href="#a"/><linearGradient id="c" x1="-193.83" y1="207.37" x2="88.84" y2="144.55" xlink:href="#a"/><radialGradient id="d" cx="362" cy="426.67" r="310.52" xlink:href="#a"/></defs><g data-name="Layer 2"><path d="M148.14 227c-26.48 0-51.62-7.54-72.7-21.79-31.8-21.5-65.2-64.78-54.69-116C31.7 35.68 86-2.1 146.94 1.28a35 35 0 1 1-3.88 69.89c-28.84-1.6-50.35 15.41-53.77 32.09-3.56 17.3 13.19 35.77 25.31 44 19.87 13.43 48.44 12.94 72.78-1.25a35 35 0 0 1 35.25 60.48A148.31 148.31 0 0 1 148.14 227z" fill="#3778b7"/><path d="M148.14 227c-26.48 0-51.62-7.54-72.7-21.79-31.8-21.5-65.2-64.78-54.69-116C31.7 35.68 86-2.1 146.94 1.28a35 35 0 1 1-3.88 69.89c-28.84-1.6-50.35 15.41-53.77 32.09-3.56 17.3 13.19 35.77 25.31 44 19.87 13.43 48.44 12.94 72.78-1.25a35 35 0 0 1 35.25 60.48A148.31 148.31 0 0 1 148.14 227z" style="mix-blend-mode:multiply" fill="url(#a)"/><path d="M234.81 158.85a34.49 34.49 0 0 0-47.18-12.43c-24.5 14.28-53.28 14.76-73.31 1.22-12.23-8.27-29.12-26.94-25.53-44.48 3.47-16.88 25.19-34.1 54.29-32.49a34.5 34.5 0 1 0 3.84-68.89C86.16-1.59 32.13 36 21.21 89.29l-1-.21C31.25 35.35 85.74-2.59 147 .78a35.5 35.5 0 0 1-4 70.89c-28.56-1.57-49.87 15.22-53.25 31.69-3.51 17.06 13.09 35.33 25.1 43.45 19.71 13.33 48.07 12.83 72.24-1.26a35.49 35.49 0 0 1 48.55 12.8z" style="mix-blend-mode:screen" fill="#3778b7"/><path d="M142.1 248.22a130.31 130.31 0 0 1-64.31-16.52C49.48 215.72 28 186.31 18.87 151c-8.64-33.38-4.52-67.31 11.3-93.09C42.39 38 61.34 22.17 85 12.14 104.83 3.7 127-.15 147.49 1.31a35 35 0 0 1-5 69.82c-18-1.29-42.69 7.12-52.68 23.4-5.84 9.52-7 24.08-3.19 38.93 4.27 16.51 14.06 30.79 25.56 37.28 22 12.42 52.59 9.15 77.92-8.33A35 35 0 1 1 229.88 220c-22.91 15.8-49 25.37-75.42 27.65q-6.22.57-12.36.57z" fill="#74acd6"/><path data-name="shadow" d="M142.1 248.22a130.31 130.31 0 0 1-64.31-16.52C49.48 215.72 28 186.31 18.87 151c-8.64-33.38-4.52-67.31 11.3-93.09C42.39 38 61.34 22.17 85 12.14 104.83 3.7 127-.15 147.49 1.31a35 35 0 0 1-5 69.82c-18-1.29-42.69 7.12-52.68 23.4-5.84 9.52-7 24.08-3.19 38.93 4.27 16.51 14.06 30.79 25.56 37.28 22 12.42 52.59 9.15 77.92-8.33A35 35 0 1 1 229.88 220c-22.91 15.8-49 25.37-75.42 27.65q-6.22.57-12.36.57z" style="mix-blend-mode:multiply" fill="url(#b)"/><path d="M142.12 178.71a61.09 61.09 0 0 1-30.12-7.53c-11.62-6.56-21.5-21-25.81-37.59-3.88-15-2.66-29.69 3.25-39.32 10.1-16.45 34.93-24.94 53.15-23.64a34.47 34.47 0 0 0 36.86-31.95 34.49 34.49 0 0 0-32-36.87C127.07.35 105 4.19 85.16 12.6l-.39-.92C104.71 3.21 127-.65 147.52.81a35.51 35.51 0 0 1 20.74 62.24 35.25 35.25 0 0 1-25.79 8.58c-17.89-1.28-42.32 7-52.21 23.16-5.78 9.41-7 23.82-3.14 38.55 4.24 16.38 13.94 30.54 25.33 37 21.83 12.32 52.21 9.06 77.39-8.31a35.49 35.49 0 0 1 49.38 9.06l-.82.57a34.5 34.5 0 0 0-48-8.8c-15.19 10.45-32.27 15.85-48.28 15.85z" style="mix-blend-mode:screen" fill="#74acd6"/><path d="M136 270.53a125.92 125.92 0 0 1-56.74-13c-38.6-19.38-65.91-60.12-73.06-109-6.82-46.77 6.18-90.8 34.8-117.77C76.26-2.49 124.16-1.83 149.58 1.52a35 35 0 1 1-9.16 69.4c-8.23-1.08-36.26-3.52-51.42 10.77-11.65 11-17 33.24-13.52 56.7 3.79 25.88 17.28 47.55 35.22 56.55 22.81 11.46 56 5 82.51-16.12a35 35 0 1 1 43.56 54.8c-30.49 24.24-66.44 36.91-100.77 36.91z" fill="#b4d2ee"/><path data-name="shadow" d="M136 270.53a125.92 125.92 0 0 1-56.74-13c-38.6-19.38-65.91-60.12-73.06-109-6.82-46.77 6.18-90.8 34.8-117.77C76.26-2.49 124.16-1.83 149.58 1.52a35 35 0 1 1-9.16 69.4c-8.23-1.08-36.26-3.52-51.42 10.77-11.65 11-17 33.24-13.52 56.7 3.79 25.88 17.28 47.55 35.22 56.55 22.81 11.46 56 5 82.51-16.12a35 35 0 1 1 43.56 54.8c-30.49 24.24-66.44 36.91-100.77 36.91z" style="mix-blend-mode:multiply" fill="url(#c)"/><path data-name="shadow" d="M136 270.53a125.92 125.92 0 0 1-56.74-13c-38.6-19.38-65.91-60.12-73.06-109-6.82-46.77 6.18-90.8 34.8-117.77C76.26-2.49 124.16-1.83 149.58 1.52a35 35 0 1 1-9.16 69.4c-8.23-1.08-36.26-3.52-51.42 10.77-11.65 11-17 33.24-13.52 56.7 3.79 25.88 17.28 47.55 35.22 56.55 22.81 11.46 56 5 82.51-16.12a35 35 0 1 1 43.56 54.8c-30.49 24.24-66.44 36.91-100.77 36.91z" style="mix-blend-mode:multiply" fill="url(#d)"/><path d="M136 201a56.64 56.64 0 0 1-25.53-5.65C92.4 186.31 78.81 164.5 75 138.46c-3.46-23.62 1.9-46.05 13.67-57.14 15.31-14.43 43.53-12 51.82-10.89a34.51 34.51 0 0 0 38.71-29.69l1 .13a35.52 35.52 0 0 1-39.84 30.55c-8.18-1.08-36-3.5-51 10.63C77.82 92.93 72.57 115 76 138.32c3.76 25.72 17.15 47.24 34.94 56.18 22.64 11.37 55.59 4.91 82-16.07a35.54 35.54 0 0 1 49.88 5.7l-.78.62a34.54 34.54 0 0 0-48.48-5.53C175.65 193.43 154.76 201 136 201z" style="mix-blend-mode:screen" fill="#b4d2ee"/><path d="M145 1.22H35a35 35 0 0 0-35 35v340a35 35 0 0 0 70 0v-230a75 75 0 0 1 150 0c0 41.31-23.69 65-65 65a35 35 0 1 0 0 70c39.29 0 73-13 97.53-37.47S290 185.51 290 146.22c0-79.95-65-145-145-145z" style="mix-blend-mode:screen" fill="#fff"/></g></svg>